<mxfile host="app.diagrams.net" modified="2021-10-21T08:22:21.430Z" agent="5.0 (Macintosh; Intel Mac OS X 10_15_3) AppleWebKit/537.36 (KHTML, like Gecko) Chrome/94.0.4606.81 Safari/537.36" etag="m9qiXGSRx22mKuQU7lia" version="15.5.7" type="github">
  <diagram name="Page-1" id="c7488fd3-1785-93aa-aadb-54a6760d102a">
    <mxGraphModel dx="946" dy="591" grid="1" gridSize="10" guides="1" tooltips="1" connect="1" arrows="1" fold="1" page="1" pageScale="1" pageWidth="1100" pageHeight="850" background="none" math="0" shadow="0">
      <root>
        <mxCell id="0" />
        <mxCell id="1" parent="0" />
        <mxCell id="2b4e8129b02d487f-1" value="Git &amp;amp; GitHub (trabajo colaborativo)" style="swimlane;html=1;childLayout=stackLayout;horizontal=1;startSize=20;horizontalStack=0;rounded=0;shadow=0;labelBackgroundColor=none;strokeWidth=1;fontFamily=Verdana;fontSize=8;align=center;" parent="1" vertex="1">
          <mxGeometry x="180" y="70" width="760" height="320" as="geometry" />
        </mxCell>
        <mxCell id="2b4e8129b02d487f-24" style="edgeStyle=orthogonalEdgeStyle;rounded=0;html=1;labelBackgroundColor=none;startArrow=none;startFill=0;startSize=5;endArrow=classicThin;endFill=1;endSize=5;jettySize=auto;orthogonalLoop=1;strokeWidth=1;fontFamily=Verdana;fontSize=8;exitX=0.205;exitY=0.992;exitDx=0;exitDy=0;exitPerimeter=0;entryX=0.5;entryY=0;entryDx=0;entryDy=0;" parent="2b4e8129b02d487f-1" source="2b4e8129b02d487f-6" target="4puBNBnCgwYLjHy2vO-K-1" edge="1">
          <mxGeometry relative="1" as="geometry">
            <mxPoint x="85" y="167" as="targetPoint" />
            <mxPoint x="85" y="120" as="sourcePoint" />
          </mxGeometry>
        </mxCell>
        <mxCell id="2b4e8129b02d487f-2" value="GitHub" style="swimlane;html=1;startSize=20;horizontal=0;" parent="2b4e8129b02d487f-1" vertex="1">
          <mxGeometry y="20" width="760" height="150" as="geometry" />
        </mxCell>
        <mxCell id="2b4e8129b02d487f-6" value="repo&lt;br style=&quot;font-size: 10px;&quot;&gt;&lt;ul style=&quot;font-size: 10px;&quot;&gt;&lt;li style=&quot;font-size: 10px;&quot;&gt;&lt;span style=&quot;font-size: 10px;&quot;&gt;main&lt;/span&gt;&lt;/li&gt;&lt;/ul&gt;" style="rounded=1;whiteSpace=wrap;html=1;shadow=0;labelBackgroundColor=none;strokeWidth=1;fontFamily=Verdana;fontSize=10;align=left;spacingLeft=7;fillColor=#F7F9FC;strokeColor=#6c8ebf;" parent="2b4e8129b02d487f-2" vertex="1">
          <mxGeometry x="46" y="30" width="190" height="63.5" as="geometry" />
        </mxCell>
        <mxCell id="2b4e8129b02d487f-4" value="Local" style="swimlane;html=1;startSize=20;horizontal=0;" parent="2b4e8129b02d487f-1" vertex="1">
          <mxGeometry y="170" width="760" height="150" as="geometry" />
        </mxCell>
        <mxCell id="4puBNBnCgwYLjHy2vO-K-1" value="repo&lt;br style=&quot;font-size: 10px&quot;&gt;&lt;ul style=&quot;font-size: 10px&quot;&gt;&lt;li style=&quot;font-size: 10px&quot;&gt;&lt;span style=&quot;font-size: 10px&quot;&gt;main&lt;/span&gt;&lt;/li&gt;&lt;li style=&quot;font-size: 10px&quot;&gt;&lt;span style=&quot;font-size: 10px&quot;&gt;(2) &lt;font color=&quot;#00cc00&quot;&gt;dev1&lt;/font&gt;&lt;/span&gt;&lt;/li&gt;&lt;/ul&gt;" style="rounded=1;whiteSpace=wrap;html=1;shadow=0;labelBackgroundColor=none;strokeWidth=1;fontFamily=Verdana;fontSize=10;align=left;spacingLeft=7;fillColor=#F7F9FC;strokeColor=#6c8ebf;" parent="2b4e8129b02d487f-4" vertex="1">
          <mxGeometry x="35" y="50" width="100" height="63.5" as="geometry" />
        </mxCell>
        <mxCell id="4puBNBnCgwYLjHy2vO-K-2" value="&lt;font style=&quot;font-size: 10px&quot;&gt;(1) git clone url&lt;/font&gt;" style="text;html=1;align=center;verticalAlign=middle;resizable=0;points=[];autosize=1;strokeColor=none;fillColor=none;" parent="2b4e8129b02d487f-4" vertex="1">
          <mxGeometry x="100" y="10" width="80" height="20" as="geometry" />
        </mxCell>
        <mxCell id="ub5eOIayWvv7YHSwUXtE-1" style="edgeStyle=orthogonalEdgeStyle;rounded=0;html=1;labelBackgroundColor=none;startArrow=none;startFill=0;startSize=5;endArrow=classicThin;endFill=1;endSize=5;jettySize=auto;orthogonalLoop=1;strokeWidth=1;fontFamily=Verdana;fontSize=8;entryX=0.5;entryY=0;entryDx=0;entryDy=0;" edge="1" parent="2b4e8129b02d487f-4" target="ub5eOIayWvv7YHSwUXtE-2">
          <mxGeometry relative="1" as="geometry">
            <mxPoint x="10" y="-107" as="targetPoint" />
            <mxPoint x="201" y="-57" as="sourcePoint" />
          </mxGeometry>
        </mxCell>
        <mxCell id="ub5eOIayWvv7YHSwUXtE-2" value="repo&lt;br style=&quot;font-size: 10px&quot;&gt;&lt;ul style=&quot;font-size: 10px&quot;&gt;&lt;li style=&quot;font-size: 10px&quot;&gt;&lt;span style=&quot;font-size: 10px&quot;&gt;main&lt;/span&gt;&lt;/li&gt;&lt;li style=&quot;font-size: 10px&quot;&gt;&lt;span style=&quot;font-size: 10px&quot;&gt;(2) &lt;font color=&quot;#00cc00&quot;&gt;dev2&lt;/font&gt;&lt;/span&gt;&lt;/li&gt;&lt;/ul&gt;" style="rounded=1;whiteSpace=wrap;html=1;shadow=0;labelBackgroundColor=none;strokeWidth=1;fontFamily=Verdana;fontSize=10;align=left;spacingLeft=7;fillColor=#FFF9F2;strokeColor=#d79b00;" vertex="1" parent="2b4e8129b02d487f-4">
          <mxGeometry x="151" y="50" width="100" height="63.5" as="geometry" />
        </mxCell>
      </root>
    </mxGraphModel>
  </diagram>
</mxfile>
